<?xml version="1.0" encoding="utf-8"?>
<!-- Generator: Adobe Illustrator 26.0.2, SVG Export Plug-In . SVG Version: 6.00 Build 0)  -->
<svg version="1.1" id="Capa_1" xmlns="http://www.w3.org/2000/svg" xmlns:xlink="http://www.w3.org/1999/xlink" x="0px" y="0px"
	 viewBox="0 0 30.5 28.4" style="enable-background:new 0 0 30.5 28.4;" xml:space="preserve">
<g>
	<g id="Ellipse_4">
		<g>
			<path d="M16.9,0C8.7,0,2,6.4,2,14.2s6.7,14.2,14.9,14.2S31.8,22,31.8,14.2S25.1,0,16.9,0z M17.5,27.2v-5.3h-1.2v5.3
				c-7-0.3-12.7-5.7-13-12.4h5.5v-1.2H3.3c0.3-6.7,5.9-12.1,13-12.4v5.3h1.2V1.2c7,0.3,12.7,5.7,13,12.4H25v1.2h5.5
				C30.2,21.5,24.6,26.9,17.5,27.2z M16.9,13c-0.7,0-1.2,0.5-1.2,1.2s0.6,1.2,1.2,1.2c0.7,0,1.2-0.5,1.2-1.2S17.6,13,16.9,13z"/>
		</g>
	</g>
</g>
</svg>
